<svg width="21" height="21" viewBox="0 0 21 21" fill="none" xmlns="http://www.w3.org/2000/svg">
<path d="M20.0695 15.7012L15.7989 11.4233V8.25154C15.7995 8.15514 15.781 8.05958 15.7446 7.97033C15.7081 7.88108 15.6544 7.79991 15.5865 7.73146L8.26141 0.406372C8.19331 0.337715 8.11229 0.283221 8.02303 0.246032C7.93377 0.208844 7.83803 0.189697 7.74133 0.189697C7.64463 0.189697 7.54888 0.208844 7.45962 0.246032C7.37036 0.283221 7.28934 0.337715 7.22124 0.406372L0.628662 6.99895C0.560005 7.06705 0.505511 7.14807 0.468322 7.23733C0.431134 7.32659 0.411987 7.42234 0.411987 7.51904C0.411987 7.61574 0.431134 7.71148 0.468322 7.80074C0.505511 7.89 0.560005 7.97102 0.628662 8.03912L7.95375 15.3642C8.0222 15.4321 8.10337 15.4858 8.19262 15.5223C8.28187 15.5587 8.37743 15.5772 8.47383 15.5766H11.6529L15.9235 19.8545C16.4732 20.4043 17.2189 20.7132 17.9965 20.7132C18.774 20.7132 19.5197 20.4043 20.0695 19.8545C20.6192 19.3047 20.9281 18.559 20.9281 17.7815C20.9281 17.004 20.6192 16.2583 20.0695 15.7085V15.7012ZM3.34627 6.35435L5.02372 8.03912L6.06388 6.99895L4.37911 5.32151L5.5438 4.15682L8.68626 7.30661L9.72643 6.26644L6.57664 3.12398L7.74133 1.95929L12.5686 6.78653L7.00882 12.3463L2.18158 7.51904L3.34627 6.35435ZM19.0293 18.807C18.7548 19.0799 18.3835 19.233 17.9965 19.233C17.6094 19.233 17.2381 19.0799 16.9636 18.807L12.4733 14.324C12.3172 14.2167 12.1399 14.1442 11.9533 14.1116H8.77416L8.04165 13.3791L13.6014 7.81936L14.3339 8.55187V11.731C14.3347 11.9231 14.411 12.1073 14.5463 12.2437L19.0293 16.7413C19.3022 17.0158 19.4553 17.3871 19.4553 17.7742C19.4553 18.1612 19.3022 18.5325 19.0293 18.807Z" fill="#DADADA"/>
</svg>
