<svg width="18" height="22" viewBox="0 0 18 22" fill="none" xmlns="http://www.w3.org/2000/svg">
<circle cx="8.27621" cy="6.34945" r="4.35727" stroke="#D4D4D4" stroke-width="2.5"/>
<path fill-rule="evenodd" clip-rule="evenodd" d="M17.0818 21.0896C17.0555 20.4271 16.9403 19.7859 16.747 19.1758C15.7265 15.9549 12.5295 13.6045 8.74348 13.6045C4.9575 13.6045 1.76044 15.9549 0.739956 19.1758C0.546666 19.7858 0.431464 20.4271 0.405137 21.0896C0.401272 21.1869 0.399323 21.2846 0.399323 21.3827C0.399323 21.4808 0.401272 21.5785 0.405137 21.6758H2.61933L3.4718 19.1758H3.44148C4.34358 17.4145 6.29776 16.1045 8.74348 16.1045C11.1783 16.1045 13.126 17.4029 14.0334 19.1523H14.1171L14.9782 21.6758H17.0818C17.0857 21.5785 17.0876 21.4808 17.0876 21.3827C17.0876 21.2846 17.0857 21.1869 17.0818 21.0896Z" fill="#D4D4D4"/>
</svg>
