<svg width="21" height="21" viewBox="0 0 21 21" fill="none" xmlns="http://www.w3.org/2000/svg">
<path fill-rule="evenodd" clip-rule="evenodd" d="M18.5135 10.209C18.5135 14.7152 14.8605 18.3682 10.3544 18.3682C5.84821 18.3682 2.19525 14.7152 2.19525 10.209C2.19525 5.70289 5.84821 2.04993 10.3544 2.04993C14.8605 2.04993 18.5135 5.70289 18.5135 10.209ZM20.5135 10.209C20.5135 15.8198 15.9651 20.3682 10.3544 20.3682C4.74364 20.3682 0.195251 15.8198 0.195251 10.209C0.195251 4.59832 4.74364 0.0499268 10.3544 0.0499268C15.9651 0.0499268 20.5135 4.59832 20.5135 10.209ZM7.24759 13.6291C6.85912 13.7203 6.52558 13.3421 6.66464 12.9681L8.32933 8.4908C8.38497 8.34116 8.50872 8.22709 8.66238 8.18379L13.44 6.83761C13.8303 6.72764 14.1823 7.10354 14.0469 7.48577L12.3821 12.1875C12.3253 12.3479 12.1907 12.4684 12.025 12.5073L7.24759 13.6291Z" fill="#D4D4D4"/>
</svg>
