<svg width="19" height="21" viewBox="0 0 19 21" fill="none" xmlns="http://www.w3.org/2000/svg">
<path d="M2.28836 20.209H16.2884C17.3914 20.209 18.2884 19.312 18.2884 18.209V7.20898C18.2884 6.94377 18.183 6.68941 17.9955 6.50188C17.8079 6.31434 17.5536 6.20898 17.2884 6.20898H14.2884V5.20898C14.2884 2.45198 12.0454 0.208984 9.28836 0.208984C6.53136 0.208984 4.28836 2.45198 4.28836 5.20898V6.20898H1.28836C1.02314 6.20898 0.76879 6.31434 0.581254 6.50188C0.393717 6.68941 0.288361 6.94377 0.288361 7.20898V18.209C0.288361 19.312 1.18536 20.209 2.28836 20.209ZM6.28836 5.20898C6.28836 3.55498 7.63436 2.20898 9.28836 2.20898C10.9424 2.20898 12.2884 3.55498 12.2884 5.20898V6.20898H6.28836V5.20898ZM2.28836 8.20898H4.28836V10.209H6.28836V8.20898H12.2884V10.209H14.2884V8.20898H16.2884L16.2904 18.209H2.28836V8.20898Z" fill="#D4D4D4"/>
</svg>
