<svg width="23" height="23" viewBox="0 0 23 23" fill="none" xmlns="http://www.w3.org/2000/svg">
<path d="M22.2113 8.40092L15.4987 7.37933L12.498 1.00892C12.416 0.834506 12.2812 0.69331 12.1146 0.607485C11.6969 0.391539 11.1893 0.571494 10.9804 1.00892L7.97969 7.37933L1.26705 8.40092C1.08198 8.42861 0.912777 8.51997 0.78323 8.6584C0.626615 8.82696 0.540313 9.05375 0.543287 9.28891C0.546262 9.52407 0.638269 9.74838 0.799093 9.91255L5.65578 14.871L4.50836 21.8726C4.48146 22.0355 4.49867 22.203 4.55805 22.3562C4.61742 22.5093 4.71659 22.642 4.84431 22.7391C4.97202 22.8363 5.12317 22.894 5.28062 22.9057C5.43807 22.9175 5.59551 22.8828 5.73509 22.8056L11.7392 19.5L17.7433 22.8056C17.9072 22.897 18.0976 22.9274 18.28 22.8942C18.74 22.8112 19.0493 22.3544 18.97 21.8726L17.8226 14.871L22.6793 9.91255C22.8115 9.77689 22.8987 9.5997 22.9252 9.4059C22.9966 8.92141 22.674 8.47291 22.2113 8.40092ZM15.7789 14.1733L16.7334 19.9956L11.7392 17.2492L6.74503 19.9983L7.69945 14.1761L3.6597 10.051L9.24343 9.20103L11.7392 3.90482L14.235 9.20103L19.8187 10.051L15.7789 14.1733Z" fill="#66C2E9"/>
</svg>
