<svg width="23" height="23" viewBox="0 0 23 23" fill="none" xmlns="http://www.w3.org/2000/svg">
<path d="M21.8169 8.40092L15.1043 7.37933L12.1036 1.00892C12.0216 0.834506 11.8868 0.69331 11.7202 0.607485C11.3025 0.391539 10.7949 0.571494 10.586 1.00892L7.58528 7.37933L0.872639 8.40092C0.687572 8.42861 0.518368 8.51997 0.388821 8.6584C0.232206 8.82696 0.145904 9.05375 0.148878 9.28891C0.151853 9.52407 0.24386 9.74838 0.404684 9.91255L5.26137 14.871L4.11395 21.8726C4.08705 22.0355 4.10426 22.203 4.16364 22.3562C4.22302 22.5093 4.32219 22.642 4.4499 22.7391C4.57762 22.8363 4.72877 22.894 4.88621 22.9057C5.04366 22.9175 5.2011 22.8828 5.34068 22.8056L11.3448 19.5L17.3489 22.8056C17.5128 22.897 17.7032 22.9274 17.8856 22.8942C18.3456 22.8112 18.6549 22.3544 18.5756 21.8726L17.4282 14.871L22.2849 9.91255C22.4171 9.77689 22.5043 9.5997 22.5308 9.4059C22.6021 8.92141 22.2796 8.47291 21.8169 8.40092Z" fill="#66C2E9"/>
</svg>
