<svg width="23" height="23" viewBox="0 0 23 23" fill="none" xmlns="http://www.w3.org/2000/svg">
<path d="M17.2024 11.4514C17.1996 10.5601 17.1041 9.67151 16.9174 8.79997H19.3037C19.1808 8.43643 19.0324 8.08203 18.8596 7.73939H16.639C16.2215 6.34477 15.5741 5.02967 14.7233 3.8484C14.1798 3.61984 13.613 3.45093 13.033 3.34462C14.1986 4.59692 15.0783 6.08733 15.6115 7.71288H12.0387V3.23193H11.0444V7.71951H7.47161C8.00592 6.09102 8.88803 4.59822 10.0568 3.34462C9.47926 3.44915 8.91476 3.61584 8.3731 3.84177C7.51897 5.0181 6.86705 6.32866 6.44417 7.71951H4.21033C4.03438 8.0684 3.88375 8.42948 3.75958 8.79997H6.16577C5.97903 9.67151 5.88351 10.5601 5.88074 11.4514C5.88257 12.4263 5.99374 13.398 6.21217 14.3481H3.86564C4.00277 14.7197 4.16671 15.0808 4.35616 15.4286H6.4972C6.90301 16.6985 7.50462 17.8972 8.2803 18.9815C8.83576 19.2198 9.41603 19.3954 10.0104 19.5052C8.92853 18.3251 8.09653 16.9385 7.56441 15.4286H11.0511V19.6311H12.0454V15.4286H15.5187C14.9848 16.9391 14.1505 18.3258 13.0662 19.5052C13.6633 19.3916 14.2458 19.2115 14.8029 18.9683C15.5773 17.8881 16.1789 16.6939 16.586 15.4286H18.7071C18.8957 15.0872 19.0596 14.7328 19.1976 14.368H16.8445C17.0733 13.4124 17.1934 12.434 17.2024 11.4514ZM11.0444 14.3481H7.23961C6.77293 12.5238 6.75247 10.614 7.17995 8.78009H11.0444V14.3481ZM15.8436 14.3481H12.0387V8.79997H15.9032C16.0936 9.6708 16.187 10.56 16.1816 11.4514C16.187 12.4271 16.0735 13.3999 15.8436 14.3481Z" fill="#DADADA"/>
<path d="M11.5416 0.845581C9.44396 0.845581 7.39344 1.4676 5.64932 2.63298C3.90521 3.79836 2.54584 5.45475 1.74311 7.39271C0.940386 9.33066 0.730356 11.4631 1.13958 13.5205C1.54881 15.5778 2.55891 17.4675 4.04216 18.9508C5.5254 20.434 7.41518 21.4441 9.4725 21.8534C11.5298 22.2626 13.6623 22.0526 15.6002 21.2498C17.5382 20.4471 19.1946 19.0877 20.36 17.3436C21.5254 15.5995 22.1474 13.549 22.1474 11.4514C22.1474 8.63854 21.03 5.94092 19.041 3.95194C17.052 1.96297 14.3544 0.845581 11.5416 0.845581ZM11.5416 20.7314C9.70616 20.7314 7.91195 20.1872 6.38586 19.1675C4.85976 18.1478 3.67031 16.6984 2.96792 15.0027C2.26554 13.307 2.08176 11.4411 2.43983 9.64092C2.79791 7.84076 3.68175 6.18721 4.97959 4.88937C6.27743 3.59153 7.93098 2.70769 9.73113 2.34962C11.5313 1.99155 13.3972 2.17532 15.0929 2.87771C16.7886 3.58009 18.238 4.76954 19.2577 6.29564C20.2774 7.82174 20.8216 9.61594 20.8216 11.4514C20.8216 13.9126 19.8439 16.273 18.1036 18.0134C16.3632 19.7537 14.0028 20.7314 11.5416 20.7314Z" fill="#DADADA"/>
</svg>
